<svg xmlns="http://www.w3.org/2000/svg" viewBox="0 0 256 256" role="img" aria-labelledby="title desc">
  <title id="title">PediCalc Pro</title>
  <desc id="desc">Marca médica con cruz, pulso y colores clínicos modernos.</desc>
  <defs>
    <linearGradient id="bg" x1="40" y1="28" x2="216" y2="228" gradientUnits="userSpaceOnUse">
      <stop offset="0" stop-color="#0ea5e9"/>
      <stop offset="0.48" stop-color="#14b8a6"/>
      <stop offset="1" stop-color="#0f766e"/>
    </linearGradient>
    <linearGradient id="pulse" x1="57" y1="135" x2="205" y2="135" gradientUnits="userSpaceOnUse">
      <stop offset="0" stop-color="#ffffff"/>
      <stop offset="0.52" stop-color="#cffafe"/>
      <stop offset="1" stop-color="#fb7185"/>
    </linearGradient>
    <filter id="shadow" x="-20%" y="-20%" width="140%" height="140%">
      <feDropShadow dx="0" dy="14" stdDeviation="14" flood-color="#0f766e" flood-opacity="0.25"/>
    </filter>
  </defs>
  <rect width="256" height="256" rx="60" fill="#eefdf9"/>
  <rect x="24" y="24" width="208" height="208" rx="52" fill="url(#bg)" filter="url(#shadow)"/>
  <path d="M115 65h26c6 0 10 4 10 10v30h30c6 0 10 4 10 10v26c0 6-4 10-10 10h-30v30c0 6-4 10-10 10h-26c-6 0-10-4-10-10v-30H75c-6 0-10-4-10-10v-26c0-6 4-10 10-10h30V75c0-6 4-10 10-10Z" fill="#ffffff" opacity="0.95"/>
  <path d="M56 135h33l14-31 28 64 22-52 14 19h33" fill="none" stroke="url(#pulse)" stroke-width="13" stroke-linecap="round" stroke-linejoin="round"/>
</svg>
