<svg xmlns="http://www.w3.org/2000/svg" viewBox="0 0 256 256" role="img" aria-labelledby="title desc">
  <title id="title">PediCalc Pro</title>
  <desc id="desc">Icono médico moderno azul claro con cruz clínica y pulso pediátrico.</desc>
  <defs>
    <linearGradient id="bg" x1="38" y1="26" x2="218" y2="228" gradientUnits="userSpaceOnUse">
      <stop offset="0" stop-color="#7dd3fc"/>
      <stop offset="0.46" stop-color="#38bdf8"/>
      <stop offset="1" stop-color="#0ea5e9"/>
    </linearGradient>
    <linearGradient id="pulse" x1="48" y1="138" x2="208" y2="138" gradientUnits="userSpaceOnUse">
      <stop offset="0" stop-color="#e0faff"/>
      <stop offset="0.55" stop-color="#ffffff"/>
      <stop offset="1" stop-color="#fb7185"/>
    </linearGradient>
    <filter id="shadow" x="-25%" y="-25%" width="150%" height="150%">
      <feDropShadow dx="0" dy="16" stdDeviation="16" flood-color="#0284c7" flood-opacity="0.32"/>
    </filter>
  </defs>
  <rect width="256" height="256" rx="60" fill="#e0f7ff"/>
  <rect x="22" y="22" width="212" height="212" rx="54" fill="url(#bg)" filter="url(#shadow)"/>
  <path d="M73 45c28-15 82-20 121 10" fill="none" stroke="#ffffff" stroke-width="7" stroke-linecap="round" opacity="0.42"/>
  <path d="M115 62h28c7 0 12 5 12 12v29h29c7 0 12 5 12 12v26c0 7-5 12-12 12h-29v29c0 7-5 12-12 12h-28c-7 0-12-5-12-12v-29H74c-7 0-12-5-12-12v-26c0-7 5-12 12-12h29V74c0-7 5-12 12-12Z" fill="#ffffff"/>
  <path d="M49 139h38l16-39 30 77 25-61 17 23h32" fill="none" stroke="#06364f" stroke-width="18" stroke-linecap="round" stroke-linejoin="round" opacity="0.22"/>
  <path d="M49 133h38l16-39 30 77 25-61 17 23h32" fill="none" stroke="url(#pulse)" stroke-width="14" stroke-linecap="round" stroke-linejoin="round"/>
  <circle cx="207" cy="133" r="8" fill="#dffbff"/>
  <circle cx="190" cy="70" r="16" fill="#ffffff" opacity="0.95"/>
  <circle cx="190" cy="70" r="8" fill="#fb7185"/>
</svg>
